<?xml version="1.0" ?><svg height="60px" fill="#fff" version="1.1" viewBox="0 0 60 60" width="60px"
    xmlns="http://www.w3.org/2000/svg" xmlns:sketch="http://www.bohemiancoding.com/sketch/ns"
    xmlns:xlink="http://www.w3.org/1999/xlink">
    <title />
    <desc />
    <defs />
    <g fill="#fff" fill-rule="evenodd" id="Page-1" stroke="none" stroke-width="1">
        <g fill="#fff" id="Group">
            <path
                d="M50,41 C50.553,41 51,40.552 51,40 L51,37 C51,36.448 50.553,36 50,36 C49.447,36 49,36.448 49,37 L49,40 C49,40.552 49.447,41 50,41"
                id="Fill-203" />
            <path
                d="M54,40 L54,37 C54,36.448 53.553,36 53,36 C52.447,36 52,36.448 52,37 L52,40 C52,40.552 52.447,41 53,41 C53.553,41 54,40.552 54,40"
                id="Fill-204" />
            <path
                d="M39,12 L43.919,12 L41.219,15.375 C40.874,15.807 40.944,16.436 41.375,16.781 C41.56,16.928 41.78,17 41.999,17 C42.293,17 42.583,16.872 42.781,16.625 L46.781,11.625 C47.021,11.325 47.067,10.913 46.901,10.567 C46.734,10.22 46.385,10 46,10 L41.174,10 L45.759,4.651 C46.119,4.231 46.07,3.6 45.65,3.241 C45.232,2.882 44.601,2.93 44.241,3.349 L38.241,10.349 C37.986,10.646 37.929,11.063 38.092,11.418 C38.255,11.772 38.609,12 39,12"
                id="Fill-205" />
            <path
                d="M5.219,16.625 C5.417,16.872 5.707,17 6.001,17 C6.22,17 6.44,16.928 6.625,16.781 C7.056,16.436 7.126,15.807 6.781,15.375 L4.081,12 L9,12 C9.391,12 9.745,11.772 9.908,11.418 C10.071,11.063 10.014,10.646 9.759,10.349 L3.759,3.349 C3.4,2.93 2.769,2.882 2.35,3.241 C1.93,3.6 1.881,4.231 2.241,4.651 L6.826,10 L2,10 C1.615,10 1.266,10.22 1.099,10.567 C0.933,10.913 0.978,11.325 1.219,11.625 L5.219,16.625"
                id="Fill-206" />
            <path
                d="M38.812,28.95 L28.552,22.166 C28.388,22.058 28.196,22 28,22 L25,22 L25,19 C25,18.448 24.553,18 24,18 C23.447,18 23,18.448 23,19 L23,22 L20,22 C19.804,22 19.612,22.058 19.448,22.166 L9.189,28.95 C8.727,29.254 8.602,29.875 8.906,30.335 C9.099,30.626 9.417,30.784 9.741,30.784 C9.931,30.784 10.122,30.73 10.292,30.618 L20.301,24 L23,24 L23,28 L20,28 C19.447,28 19,28.448 19,29 C19,29.552 19.447,30 20,30 L23,30 L23,33 L20,33 C19.447,33 19,33.448 19,34 C19,34.552 19.447,35 20,35 L23,35 L23,37.354 L18.549,39.605 C18.212,39.775 18,40.121 18,40.498 L18,52 C18,52.552 18.447,53 19,53 C19.553,53 20,52.552 20,52 L20,41.112 L24,39.09 L28,41.112 L28,52 C28,52.552 28.447,53 29,53 C29.553,53 30,52.552 30,52 L30,40.498 C30,40.121 29.788,39.775 29.451,39.605 L25,37.354 L25,35 L28,35 C28.553,35 29,34.552 29,34 C29,33.448 28.553,33 28,33 L25,33 L25,30 L29,30 C29.553,30 30,29.552 30,29 C30,28.448 29.553,28 29,28 L25,28 L25,24 L27.699,24 L37.708,30.618 C37.878,30.73 38.069,30.784 38.259,30.784 C38.583,30.784 38.901,30.626 39.094,30.335 C39.398,29.875 39.273,29.254 38.812,28.95"
                id="Fill-207" />
            <path
                d="M51.5,31 C50.947,31 50.5,31.448 50.5,32 C50.5,32.552 50.947,33 51.5,33 C54.532,33 57,35.467 57,38.5 C57,41.533 54.532,44 51.5,44 C48.943,44 46.737,42.273 46.136,39.8 C46.005,39.263 45.462,38.936 44.928,39.064 C44.391,39.195 44.062,39.736 44.192,40.272 C45.014,43.645 48.019,46 51.5,46 C55.636,46 59,42.636 59,38.5 C59,34.364 55.636,31 51.5,31"
                id="Fill-208" />
            <path
                d="M47.283,34.25 C48.871,31.074 47.718,27.175 44.711,25.408 L34.613,18.563 C33.511,17.816 32.273,17.326 30.975,17.116 C32.445,15.714 34,13.423 34,10 C34,4.486 29.514,0 24,0 C18.486,0 14,4.486 14,10 C14,13.423 15.555,15.714 17.025,17.116 C15.728,17.326 14.489,17.816 13.386,18.563 L3.344,25.374 C0.282,27.175 -0.871,31.074 0.717,34.25 C1.527,35.871 2.919,37.078 4.637,37.651 C6.354,38.222 8.192,38.093 9.824,37.277 L13,35.641 L13,54 C13,56.417 14.314,59 18,59 L20,59 C21.641,59 23.088,58.194 24,56.969 C24.912,58.194 26.359,59 28,59 L30,59 C33.686,59 35,56.417 35,54 L35,35.641 L38.186,37.283 C39.808,38.093 41.644,38.224 43.363,37.651 C45.081,37.078 46.473,35.871 47.283,34.25 L47.283,34.25 Z M45.494,33.356 C44.923,34.498 43.941,35.35 42.73,35.753 C41.52,36.157 40.224,36.066 39.092,35.5 L34.458,33.111 C34.148,32.952 33.777,32.964 33.479,33.146 C33.182,33.328 33,33.651 33,34 L33,54 C33,55.369 32.479,57 30,57 L28,57 C26.346,57 25,55.654 25,54 L25,47 C25,46.448 24.553,46 24,46 C23.447,46 23,46.448 23,47 L23,54 C23,55.654 21.654,57 20,57 L18,57 C15.521,57 15,55.369 15,54 L15,34 C15,33.651 14.818,33.328 14.52,33.146 C14.223,32.964 13.851,32.952 13.542,33.111 L8.919,35.494 C7.776,36.066 6.481,36.158 5.269,35.753 C4.059,35.35 3.077,34.498 2.506,33.356 C1.386,31.117 2.199,28.368 4.412,27.063 L14.508,20.219 C15.685,19.421 17.058,19 18.479,19 L20,19 C20.471,19 20.877,18.67 20.976,18.21 C21.075,17.75 20.838,17.281 20.408,17.087 C20.228,17.006 16,15.035 16,10 C16,5.589 19.589,2 24,2 C28.411,2 32,5.589 32,10 C32,15.035 27.772,17.006 27.595,17.086 C27.163,17.277 26.924,17.745 27.022,18.207 C27.119,18.669 27.527,19 28,19 L29.52,19 C30.942,19 32.315,19.421 33.491,20.219 L43.643,27.098 C45.801,28.368 46.614,31.117 45.494,33.356 L45.494,33.356 Z"
                id="Fill-209" />
            <path
                d="M22,11 C22.256,11 22.512,10.902 22.707,10.707 C23.098,10.316 23.098,9.684 22.707,9.293 L21.914,8.5 L22.707,7.707 C23.098,7.316 23.098,6.684 22.707,6.293 C22.316,5.902 21.684,5.902 21.293,6.293 L20.5,7.086 L19.707,6.293 C19.316,5.902 18.684,5.902 18.293,6.293 C17.902,6.684 17.902,7.316 18.293,7.707 L19.086,8.5 L18.293,9.293 C17.902,9.684 17.902,10.316 18.293,10.707 C18.488,10.902 18.744,11 19,11 C19.256,11 19.512,10.902 19.707,10.707 L20.5,9.914 L21.293,10.707 C21.488,10.902 21.744,11 22,11"
                id="Fill-210" />
            <path
                d="M25.293,10.707 C25.488,10.902 25.744,11 26,11 C26.256,11 26.512,10.902 26.707,10.707 L27.5,9.914 L28.293,10.707 C28.488,10.902 28.744,11 29,11 C29.256,11 29.512,10.902 29.707,10.707 C30.098,10.316 30.098,9.684 29.707,9.293 L28.914,8.5 L29.707,7.707 C30.098,7.316 30.098,6.684 29.707,6.293 C29.316,5.902 28.684,5.902 28.293,6.293 L27.5,7.086 L26.707,6.293 C26.316,5.902 25.684,5.902 25.293,6.293 C24.902,6.684 24.902,7.316 25.293,7.707 L26.086,8.5 L25.293,9.293 C24.902,9.684 24.902,10.316 25.293,10.707"
                id="Fill-211" />
        </g>
    </g>
</svg>
