<?xml version="1.0" ?><svg id="Layer_1_1_" fill="#fff" style="enable-background:new 0 0 64 64;" version="1.1"
    viewBox="0 0 64 64" xml:space="preserve" xmlns="http://www.w3.org/2000/svg"
    xmlns:xlink="http://www.w3.org/1999/xlink">
    <g>
        <path
            d="M23.586,63h22.828L63,46.414V35H51.586L23.586,63z M61,37v8.586L45.586,61h-7.172l15.293-15.293   l-1.414-1.414L35.586,61h-7.172l24-24H61z"
            style="fill:#fff;" />
        <rect height="2" style="fill:#fff;" transform="matrix(0.7071 -0.7071 0.7071 0.7071 -13.2965 51.8995)"
            width="2.828" x="54.586" y="41" />
        <path
            d="M40.414,1H17.586L1,17.586V29h11.414L40.414,1z M3,27v-8.586L18.414,3h7.172L10.293,18.293   l1.414,1.414L28.414,3h7.172l-24,24H3z"
            style="fill:#fff;" />
        <rect height="2" style="fill:#fff;" transform="matrix(0.7071 -0.7071 0.7071 0.7071 -13.2132 12.1005)"
            width="2.828" x="6.586" y="21" />
        <path
            d="M50.971,24.443L39.557,13.029l-2.749,2.749L1,51.586V63h11.414l35.808-35.808L50.971,24.443z    M34.473,20.941c-0.129,1.93,0.428,3.894,1.676,5.496L3,59.586v-7.172L34.473,20.941z M11.586,61H4.414l33.149-33.149   c1.451,1.13,3.2,1.702,4.952,1.702c0.182,0,0.363-0.014,0.544-0.026L11.586,61z M38.222,25.778c-2.367-2.367-2.367-6.219,0-8.586   l1.335-1.335l8.586,8.586l-1.335,1.335C44.44,28.146,40.589,28.146,38.222,25.778z"
            style="fill:#fff;" />
        <path
            d="M48,13.414l2-2c0.526-0.526,1.474-0.526,2,0L52.586,12C52.849,12.263,53,12.628,53,13   s-0.151,0.737-0.414,1l-2,2c-1.103,1.103-1.103,2.898,0,4.001c0.645,0.645,1.501,1,2.413,1c0.001,0,0.002,0,0.003,0   c0.911,0,1.767-0.355,2.411-1L62,13.414c0.645-0.645,1-1.502,1-2.414s-0.355-1.77-1-2.414L55.414,2c-1.289-1.29-3.539-1.29-4.828,0   L44,8.586c-0.645,0.645-1,1.502-1,2.414c0,0.912,0.355,1.769,1,2.413C45.068,14.483,46.932,14.483,48,13.414z M45.414,10L52,3.414   c0.526-0.526,1.474-0.526,2,0L60.586,10C60.849,10.263,61,10.628,61,11s-0.151,0.737-0.414,1l-6.587,6.587   C53.732,18.854,53.378,19,53,19c0,0,0,0-0.001,0c-0.377,0-0.732-0.147-0.999-0.414c-0.157-0.157-0.243-0.365-0.243-0.586   s0.086-0.43,0.243-0.586l2-2c0.645-0.645,1-1.502,1-2.414s-0.355-1.77-1-2.414L53.414,10C52.77,9.355,51.912,9,51,9   s-1.77,0.355-2.414,1l-2,2c-0.313,0.313-0.859,0.313-1.173,0C45.147,11.733,45,11.377,45,11C45,10.627,45.151,10.264,45.414,10z"
            style="fill:#fff;" />
    </g>
</svg>
