<?xml version="1.0" ?><svg fill="#fff"  viewBox="0 0 64 64" xmlns="http://www.w3.org/2000/svg"><g id="Loyalty_customer"><path d="M52.6218,29.0344a9.6567,9.6567,0,0,0-8.7759,4.5047.6653.6653,0,0,1-1.1389,0,9.6218,9.6218,0,0,0-9.4892-4.4273c-4.9446.7219-8.5074,5.4963-8.5074,10.8548a13.4392,13.4392,0,0,0,6.0472,11.38l9.6691,6.137a5.271,5.271,0,0,0,5.7,0l9.6694-6.137a13.4387,13.4387,0,0,0,6.0469-11.38C61.8425,34.32,57.8691,29.4079,52.6218,29.0344Z"/><path d="M32.8276,26.44c.2864-.0419.5747-.0728.8631-.0944A15.5187,15.5187,0,0,0,26.8032,20.83a1.564,1.564,0,0,1-.9455-1.4365v0a1.5951,1.5951,0,0,1,.4951-1.1693c.0967-.0921.1892-.1828.2585-.2558A9.777,9.777,0,0,0,27.9,16.2758,9.7238,9.7238,0,0,0,17.7283,1.727a9.5019,9.5019,0,0,0-7.67,7.45A9.7241,9.7241,0,0,0,12.74,18.2034a1.6484,1.6484,0,0,1,.5144,1.1711v.0081a1.5651,1.5651,0,0,1-.9455,1.4516A16.0039,16.0039,0,0,0,3.7048,29.36,20.3622,20.3622,0,0,0,2.008,37.7449v2.0785A3.392,3.392,0,0,0,5.4,43.2155H22.3347a16.682,16.682,0,0,1-.3242-3.2489C22.0105,33.1557,26.6609,27.3405,32.8276,26.44ZM15.5867,15.0522a1.25,1.25,0,0,1,1.75-1.7857,3.0989,3.0989,0,0,0,4.5634.0044,1.25,1.25,0,1,1,1.7539,1.7813,5.4984,5.4984,0,0,1-3.92,1.7549A6.1972,6.1972,0,0,1,15.5867,15.0522Z"/></g></svg>