<?xml version="1.0" ?><svg fill="#fff"  enable-background="new 0 0 100 100" height="100px" id="integrity" version="1.1" viewBox="0 0 100 100" width="100px" xml:space="preserve" xmlns="http://www.w3.org/2000/svg" xmlns:xlink="http://www.w3.org/1999/xlink"><circle cx="50" cy="50" r="5"/><path d="M50,20.007c16.537,0,29.992,13.455,29.992,29.993S66.537,79.993,50,79.993c-16.538,0-29.992-13.455-29.992-29.993  S33.462,20.007,50,20.007 M50,10.007c-22.087,0-39.992,17.907-39.992,39.993S27.913,89.993,50,89.993  c22.088,0,39.992-17.907,39.992-39.993S72.088,10.007,50,10.007L50,10.007z"/><path d="M50,37.931c6.654,0,12.068,5.414,12.068,12.069S56.654,62.069,50,62.069S37.932,56.655,37.932,50S43.346,37.931,50,37.931   M50,27.931c-12.188,0-22.068,9.882-22.068,22.069S37.812,72.069,50,72.069c12.188,0,22.068-9.882,22.068-22.069  S62.188,27.931,50,27.931L50,27.931z"/></svg>