<?xml version="1.0" ?><svg viewBox="0 0 64 64" fill="#fff"  xmlns="http://www.w3.org/2000/svg"><g id="Human_employees_management"><path d="M58.0879,21.4555a9.8048,9.8048,0,0,0-5.2752-5.2181.9589.9589,0,0,1-.5793-.8805.9776.9776,0,0,1,.3035-.7167c.0593-.0565.1159-.1119.1584-.1567a6.0108,6.0108,0,0,0,.79-1.0371A5.9593,5.9593,0,0,0,47.2512,4.53a5.8229,5.8229,0,0,0-4.7,4.566,5.959,5.959,0,0,0,1.6431,5.5319,1.0106,1.0106,0,0,1,.3154.7176v.005a.9592.9592,0,0,1-.58.8895,9.8556,9.8556,0,0,0-1.5388.812,13.4921,13.4921,0,0,1,2.0906,3.2912,15.06,15.06,0,0,1,1.2812,6.2486v1.2862a4.7178,4.7178,0,0,1-.4961,2.0788h11.784A2.0787,2.0787,0,0,0,59.13,27.8779V26.5917A12.4463,12.4463,0,0,0,58.0879,21.4555Z"/><path d="M15.1052,36.6892H8.5471a1.0432,1.0432,0,0,0-1.0432,1.0434V60.1142a1.0433,1.0433,0,0,0,1.0432,1.0435h6.5581A2.2745,2.2745,0,0,0,17.38,58.8832v-19.92A2.2744,2.2744,0,0,0,15.1052,36.6892Z"/><path d="M56.3279,39.3642a3.8044,3.8044,0,0,0-3.1846-1.7158h-2.57a5.5491,5.5491,0,0,0-5.1455,3.4429A5.75,5.75,0,0,1,44.4036,42.71,8.3781,8.3781,0,0,1,37.72,46.5092l-7.6123.0005a1.35,1.35,0,0,1,0-2.7h7.5762a5.0783,5.0783,0,0,0,2.7244-.8766l0-.0457A5.2188,5.2188,0,0,0,35.19,37.6484h-5.586a7.7365,7.7365,0,0,0-5.497,2.27l-.1426.1421a7.2471,7.2471,0,0,1-3.8858,2.0127V56.9848H40.45A15.43,15.43,0,0,0,54.64,47.6381l2.0068-4.6709A3.802,3.802,0,0,0,56.3279,39.3642Z"/><path d="M5.4837,26.604a12.4787,12.4787,0,0,1,1.04-5.1387A9.8078,9.8078,0,0,1,11.7967,16.24a.9591.9591,0,0,0,.58-.8895v-.005a1.0106,1.0106,0,0,0-.3153-.7177A5.9593,5.9593,0,0,1,10.4178,9.096a5.823,5.823,0,0,1,4.7-4.5661,5.9563,5.9563,0,0,1,5.4441,9.9536c-.0425.0447-.0992.1-.1583.1567a.9768.9768,0,0,0-.3035.7167h0a.9586.9586,0,0,0,.5794.8805,9.8051,9.8051,0,0,1,5.2751,5.2182,12.4488,12.4488,0,0,1,1.0417,5.1362v1.2861a2.079,2.079,0,0,1-2.0789,2.0789H7.5626a2.079,2.079,0,0,1-2.0789-2.0789Z"/><path d="M42.0212,21.4555a9.8049,9.8049,0,0,0-5.2749-5.2181.9587.9587,0,0,1-.58-.8805A.9777.9777,0,0,1,36.47,14.64c.0591-.0565.1158-.1119.1582-.1567a5.9808,5.9808,0,0,0,.79-1.0371A5.9593,5.9593,0,0,0,31.1846,4.53a5.8231,5.8231,0,0,0-4.7,4.566,5.959,5.959,0,0,0,1.6433,5.5319,1.0108,1.0108,0,0,1,.3152.7176v.005a.9588.9588,0,0,1-.58.8895,9.8539,9.8539,0,0,0-1.5386.812,13.4826,13.4826,0,0,1,2.09,3.2912,15.0582,15.0582,0,0,1,1.2815,6.2486v1.2862A4.7178,4.7178,0,0,1,29.2,29.9567H40.9841a2.0787,2.0787,0,0,0,2.0789-2.0788V26.5917A12.4464,12.4464,0,0,0,42.0212,21.4555Z"/></g></svg>