<?xml version="1.0" ?><svg fill="#fff" height="64" width="64" id="svg8" version="1.1" viewBox="0 0 16.933333 16.933333" width="64"
    xmlns="http://www.w3.org/2000/svg" xmlns:cc="http://creativecommons.org/ns#"
    xmlns:dc="http://purl.org/dc/elements/1.1/" xmlns:inkscape="http://www.inkscape.org/namespaces/inkscape"
    xmlns:rdf="http://www.w3.org/1999/02/22-rdf-syntax-ns#"
    xmlns:sodipodi="http://sodipodi.sourceforge.net/DTD/sodipodi-0.dtd" xmlns:svg="http://www.w3.org/2000/svg">
    <defs id="defs2" />
    <g id="layer2">
        <path
            d="m 9.7885498,1.0583502 c -0.5817932,0 -1.0593682,0.477574 -1.059367,1.059367 0,0.581792 0.4775738,1.059367 1.059367,1.059366 0.5817922,0 1.0593672,-0.477574 1.0593672,-1.059366 0,-0.581793 -0.477575,-1.059367 -1.0593672,-1.059367 z m 0,0.7953 c 0.1450221,0 0.2640672,0.119044 0.2640672,0.264067 0,0.145022 -0.1190451,0.264066 -0.2640672,0.264066 -0.145023,0 -0.2640662,-0.119044 -0.2640662,-0.264066 -8e-7,-0.145023 0.1190432,-0.264067 0.2640662,-0.264067 z m -1.585433,0.179834 -1.7833532,1.029911 c 0.4258602,0.220151 0.7229531,0.6596491 0.7229531,1.1689209 0,0.08951 -0.0091,0.1767661 -0.02635,0.261483 L 8.9281427,3.4478682 C 8.4914746,3.1636122 8.1989878,2.6726202 8.1989878,2.1177172 c 0,-0.02845 0.00259,-0.05613 0.0041,-0.08423 z m 3.1569132,0.302307 c -0.09434,0.672902 -0.615567,1.215898 -1.278474,1.34152 l 1.058333,1.0583329 c 0.01566,-0.0826 0.03858,-0.1625949 0.06666,-0.2402948 0.05635,-0.155888 0.136047,-0.3005572 0.235645,-0.4299482 0.149292,-0.193948 0.341632,-0.3524189 0.562756,-0.4614699 0.147638,-0.07281 0.307574,-0.123108 0.47594,-0.146761 z m -5.5402301,1.103809 c -0.436486,0 -0.7947829,0.3567459 -0.7947829,0.7932329 0,0.4364861 0.3582969,0.794783 0.7947829,0.794783 0.4364859,0 0.7947839,-0.3582969 0.7947839,-0.794783 0,-0.436487 -0.358298,-0.7932329 -0.7947839,-0.7932329 z m 0,0.5286499 c 0.145874,0 0.2656169,0.119226 0.2656169,0.2651 0,0.145873 -0.1197429,0.265616 -0.2656169,0.265616 -0.1458741,0 -0.2656171,-0.119743 -0.2656171,-0.265616 0,-0.145874 0.119743,-0.2651 0.2656171,-0.2651 z m 6.8791671,5.291e-4 c -0.582478,8e-7 -1.058334,0.4763731 -1.058334,1.0588498 0,0.5824781 0.475856,1.0583331 1.058334,1.0583341 0.582477,-1e-6 1.060917,-0.475856 1.060917,-1.0583341 0,-0.5824767 -0.47844,-1.058849 -1.060917,-1.0588498 z M 7.0615849,4.6710622 C 6.9690347,4.9298861 6.8017116,5.1528701 6.5809938,5.3097831 l 0.297656,0.1720821 v 1.1327349 c 0,0.2198679 0.177006,0.396875 0.396875,0.396875 0.219869,0 0.396875,-0.1770071 0.396875,-0.396875 V 5.250859 c 0,-0.1298278 -0.05493,-0.2585817 -0.2103231,-0.3482998 z m -2.4830532,0.00101 -0.3999749,0.2309931 c -0.155394,0.0897 -0.2103231,0.2179548 -0.2103231,0.3477829 v 1.363741 c 0,0.219868 0.177006,0.396875 0.396875,0.396875 0.219868,0 0.396875,-0.1770059 0.396875,-0.396875 V 5.4818366 L 5.0596398,5.3097548 C 4.8388948,5.1529852 4.671259,4.9306722 4.5785318,4.6720491 Z M 12.7,4.7630222 A 0.26458332,0.26458332 0 0 1 12.964584,5.0276052 0.26458332,0.26458332 0 0 1 12.7,5.2921891 0.26458332,0.26458332 0 0 1 12.435417,5.0276052 0.26458332,0.26458332 0 0 1 12.7,4.7630222 Z m -1.362191,1.074353 -0.655257,1.3079298 h -0.0987 c -0.0086,-6.085e-4 -0.01773,-0.0013 -0.02635,-0.00101 h -5.3e-4 c -2.57e-4,1.299e-4 -2.91e-4,8.996e-4 -5.29e-4,0.00101 -0.13532,0.01356 -0.238362,0.1275281 -0.238228,0.2635502 v 1.3229161 h 2.646867 V 7.4088507 c -3.97e-4,-0.09341 -0.05231,-0.1712781 -0.125573,-0.2180741 l 0.321944,-0.6449219 c -0.07147,0.022 -0.145467,0.03739 -0.220659,0.04909 -0.0029,4.498e-4 -0.0058,0.00111 -0.0088,0.00159 -0.07626,0.01143 -0.153867,0.019121 -0.23306,0.019121 -0.06933,0 -0.137023,-0.0062 -0.204122,-0.014991 -0.0082,-0.00111 -0.01617,-0.00241 -0.02429,-0.0036 -0.05866,-0.0086 -0.116124,-0.02068 -0.172599,-0.03566 -0.0084,-0.0022 -0.01697,-0.0038 -0.02532,-0.0062 -0.127918,-0.0362 -0.249281,-0.08797 -0.362252,-0.153479 -0.004,-0.0023 -0.0079,-0.0049 -0.01188,-0.0072 -0.0554,-0.03278 -0.108265,-0.06897 -0.159164,-0.108004 h -5.29e-4 C 11.578481,6.163513 11.442107,6.011271 11.337769,5.8374519 Z M 3.9687498,7.9380173 C 3.821823,7.9374623 3.7025729,8.0567073 3.7031339,8.2036343 V 10.58385 c -5.609e-4,0.146929 0.1186891,0.266177 0.2656159,0.265617 H 6.6150997 C 6.7612198,10.848885 6.8792068,10.72997 6.8786498,10.58385 V 8.2036163 c 5.559e-4,-0.14612 -0.11743,-0.265033 -0.2635501,-0.265617 H 5.5567666 v 0.794783 H 5.0275997 v -0.794783 z m 5.0281168,1.32395 c -0.1463058,-8.73e-4 -0.265022,0.117205 -0.2656168,0.26355 v 1.3229167 h 5.5557332 c 0.09036,0 0.178091,0.0091 0.265101,0.0217 V 9.5255153 c -5.82e-4,-0.146142 -0.118997,-0.264134 -0.265101,-0.26355 z M 2.6463499,11.379132 c -0.8748979,0 -1.5874999,0.711052 -1.5874999,1.58595 0,0.874898 0.712602,1.5875 1.5874999,1.5875 H 14.286983 c 0.874898,0 1.5875,-0.712602 1.5875,-1.5875 0,-0.874898 -0.712602,-1.58595 -1.5875,-1.58595 z m 0,0.793234 c 0.432108,0 0.793233,0.361125 0.793234,0.793233 -1e-6,0.432107 -0.361126,0.794783 -0.793234,0.794783 -0.432107,0 -0.7947829,-0.362675 -0.7947829,-0.794783 0,-0.432108 0.3626759,-0.793233 0.7947829,-0.793233 z m 2.9104167,0 c 0.4321084,0 0.792716,0.361125 0.7927171,0.793233 -1.1e-6,0.432107 -0.3606087,0.794783 -0.7927171,0.794783 -0.4321079,0 -0.7952999,-0.362676 -0.7952999,-0.794783 0,-0.432108 0.363192,-0.793233 0.7952999,-0.793233 z m 2.9099002,0 c 0.432108,0 0.793233,0.361125 0.793233,0.793233 0,0.432107 -0.361125,0.794783 -0.793233,0.794783 -0.432108,0 -0.792716,-0.362676 -0.7927171,-0.794783 1.1e-6,-0.432108 0.3606091,-0.793233 0.7927171,-0.793233 z m 2.9104172,0 c 0.432108,0 0.792715,0.361125 0.792716,0.793233 -1e-6,0.432107 -0.360608,0.794783 -0.792716,0.794783 -0.432107,0 -0.793233,-0.362676 -0.793234,-0.794783 10e-7,-0.432108 0.361127,-0.793233 0.793234,-0.793233 z m 2.909899,0 c 0.432109,-1e-6 0.795301,0.361124 0.795301,0.793233 0,0.432108 -0.363192,0.794785 -0.795301,0.794783 -0.432106,0 -0.792716,-0.362676 -0.792716,-0.794783 0,-0.432108 0.36061,-0.793233 0.792716,-0.793233 z M 2.6463499,12.702049 c -0.139857,0 -0.265616,0.123692 -0.265616,0.26355 0,0.139857 0.125759,0.265617 0.265616,0.265617 0.139858,0 0.26355,-0.12576 0.26355,-0.265617 0,-0.139858 -0.123692,-0.26355 -0.26355,-0.26355 z m 2.9104167,0 c -0.1398569,0 -0.2656166,0.123692 -0.2656166,0.26355 0,0.139857 0.1257597,0.265617 0.2656166,0.265617 0.1398572,0 0.2635502,-0.12576 0.2635502,-0.265617 0,-0.139858 -0.123693,-0.26355 -0.2635502,-0.26355 z m 2.9099002,0 c -0.139858,0 -0.2656171,0.123692 -0.2656171,0.26355 0,0.139857 0.1257591,0.265617 0.2656171,0.265617 0.1398569,0 0.2635499,-0.12576 0.2635499,-0.265617 0,-0.139858 -0.123693,-0.26355 -0.2635499,-0.26355 z m 2.9104172,0 c -0.139857,0 -0.26355,0.123692 -0.26355,0.26355 0,0.139857 0.123693,0.265616 0.26355,0.265617 0.139856,-10e-7 0.265616,-0.12576 0.265616,-0.265617 0,-0.139858 -0.12576,-0.26355 -0.265616,-0.26355 z m 2.909899,0 c -0.139857,-1e-6 -0.263549,0.123692 -0.263549,0.26355 0,0.139857 0.123692,0.265617 0.263549,0.265617 0.139858,-10e-7 0.265617,-0.12576 0.265617,-0.265617 0,-0.139858 -0.125759,-0.26355 -0.265617,-0.26355 z m 0.265101,2.357996 c -0.08703,0.01267 -0.174722,0.02044 -0.265101,0.0217 H 8.7312498 v 0.529684 c 5.822e-4,0.146345 0.119311,0.26442 0.2656168,0.263549 h 5.2901164 c 0.146104,5.83e-4 0.264507,-0.117407 0.265101,-0.263549 z"
            id="path1966"
            style="color:#ffffff;font-style:normal;font-variant:normal;font-weight:normal;font-stretch:normal;font-size:medium;line-height:normal;font-family:sans-serif;font-variant-ligatures:normal;font-variant-position:normal;font-variant-caps:normal;font-variant-numeric:normal;font-variant-alternates:normal;font-feature-settings:normal;text-indent:0;text-align:start;text-decoration:none;text-decoration-line:none;text-decoration-style:solid;text-decoration-color:#000000;letter-spacing:normal;word-spacing:normal;text-transform:none;writing-mode:lr-tb;direction:ltr;text-orientation:mixed;dominant-baseline:auto;baseline-shift:baseline;text-anchor:start;white-space:normal;shape-padding:0;clip-rule:nonzero;display:inline;overflow:visible;visibility:visible;opacity:1;isolation:auto;mix-blend-mode:normal;color-interpolation:sRGB;color-interpolation-filters:linearRGB;solid-color:#000000;solid-opacity:1;vector-effect:none;fill:#fff;fill-opacity:1;fill-rule:nonzero;stroke:none;stroke-width:0.52916664;stroke-linecap:round;stroke-linejoin:round;stroke-miterlimit:4;stroke-dasharray:none;stroke-dashoffset:0;stroke-opacity:1;color-rendering:auto;image-rendering:auto;shape-rendering:auto;text-rendering:auto;enable-background:accumulate" />
    </g>
</svg>
