<?xml version="1.0" ?><svg fill="#fff" id="Layer_1" style="enable-background:new 0 0 128 128;" version="1.1" viewBox="0 0 128 128" xml:space="preserve" xmlns="http://www.w3.org/2000/svg" xmlns:xlink="http://www.w3.org/1999/xlink"><g><path d="M102,57h-3c0-19.3-15.7-35-35-35c-19.3,0-35,15.7-35,35h-3C12.2,57,1,68.2,1,82s11.2,25,25,25h76c13.8,0,25-11.2,25-25   S115.8,57,102,57z M102,99H26c-9.4,0-17-7.6-17-17s7.6-17,17-17h11v-8c0-14.9,12.1-27,27-27s27,12.1,27,27v8h11c9.4,0,17,7.6,17,17   S111.4,99,102,99z"/></g></svg>