<?xml version="1.0" ?><svg fill="#fff" viewBox="0 0 512 512" xmlns="http://www.w3.org/2000/svg"><title/><g id="Solid"><polygon points="88.592 144 55.516 144 48.708 252.917 95.456 233.233 88.592 144"/><rect height="16" width="32" x="224" y="184"/><path d="M320,260.04883,184,317.31177V480H168V220.04883L32,277.31152V480H16v16H336V480H320ZM128,264h16v24H128Zm0,40h16v64H128Zm0,88h16v72H128Zm152-88h16v40H280Zm0,56h16V464H280Z"/><polygon points="88 112 56 112 55.99 128 88 128 88 112"/><polygon points="224 216.399 217.036 286.042 263.151 266.625 256 216.568 256 216 224 216 224 216.399"/><path d="M477.65674,264.9707l-78.627-78.627A23.84385,23.84385,0,0,1,392,169.37305V131.31348a15.89386,15.89386,0,0,1,4.6875-11.31446l50.34229-50.34277a8.00771,8.00771,0,0,0,0-11.3125L420.68652,32h-57.373l-16,16a15.99888,15.99888,0,0,1-22.62793-.001l-4.68506-4.68457L307.31445,55.999l-.00732.00782L371.31348,120A15.893,15.893,0,0,1,376,131.31348v54.05957a7.94524,7.94524,0,0,0,2.34326,5.65625l70.627,70.62695A23.84385,23.84385,0,0,1,456,278.627v66.7461a23.84385,23.84385,0,0,1-7.02979,16.9707l-70.627,70.627A7.94524,7.94524,0,0,0,376,438.627V480h4.68652L424,436.68555A15.89915,15.89915,0,0,1,435.31348,432h8.93945L478.146,391.3291A8.01922,8.01922,0,0,0,480,386.207V270.627A7.94524,7.94524,0,0,0,477.65674,264.9707ZM374.65625,100.4375l-13.3125-8.875,10.19006-15.28516-14.0636-4.6875,5.05958-15.17968L376,60.90039V48h16V60.90039l13.47021-4.49023,5.05958,15.17968-14.0636,4.6875L406.65625,91.5625l-13.3125,8.875L384,86.42188Z"/><path d="M243.32886,49.35742l-8.9856,8.98535,11.31348,11.31446L275.31348,40,245.65674,10.34277,234.34326,21.65723l11.322,11.32177a176.30683,176.30683,0,0,0-126.11255,74.44092l13.12305,9.1543A160.30873,160.30873,0,0,1,243.32886,49.35742Z"/><path d="M253.65674,82.34277,242.34326,93.65723l11.68353,11.6831a120.09208,120.09208,0,0,0-94.14447,75.79932l14.94434,5.7168a104.07237,104.07237,0,0,1,75.60767-64.6045l-8.09107,8.09082,11.31348,11.31446L283.31348,112Z"/></g></svg>